M48
; DRILL file KiCad 10.0.3 date 2026-06-26T19:46:39
; FORMAT={-:-/ absolute / inch / decimal}
; #@! TF.CreationDate,2026-06-26T19:46:39+02:00
; #@! TF.GenerationSoftware,Kicad,Pcbnew,10.0.3
; #@! TF.FileFunction,Plated,1,6,PTH
FMAT,2
INCH
; #@! TA.AperFunction,Plated,PTH,ComponentDrill
T1C0.0079
; #@! TA.AperFunction,Plated,PTH,ComponentDrill
T2C0.0100
; #@! TA.AperFunction,Plated,PTH,ViaDrill
T3C0.0118
; #@! TA.AperFunction,Plated,PTH,ComponentDrill
T4C0.0314
; #@! TA.AperFunction,Plated,PTH,ComponentDrill
T5C0.0350
; #@! TA.AperFunction,Plated,PTH,ComponentDrill
T6C0.0354
; #@! TA.AperFunction,Plated,PTH,ComponentDrill
T7C0.0394
; #@! TA.AperFunction,Plated,PTH,ComponentDrill
T8C0.0400
; #@! TA.AperFunction,Plated,PTH,ComponentDrill
T9C0.0433
%
G90
G05
T1
X1.574Y6.3528
X1.574Y6.2976
X1.6213Y6.3528
X1.6213Y6.2976
X1.6685Y6.3528
X1.6685Y6.2976
T2
X0.9438Y6.3301
X0.9438Y6.2991
X0.9438Y6.2681
X0.9748Y6.3301
X0.9748Y6.2991
X0.9748Y6.2681
T3
X-0.2437Y6.5819
X-0.2437Y6.3378
X-0.2437Y6.1134
X-0.0429Y6.5819
X-0.0272Y6.1094
X-0.0272Y5.9402
X0.0185Y1.8636
X0.0185Y1.1567
X0.0217Y2.7256
X0.024Y3.6843
X0.024Y3.3969
X0.0264Y2.3807
X0.028Y4.1843
X0.028Y3.1567
X0.0319Y5.2433
X0.0319Y3.9874
X0.0319Y1.5031
X0.0319Y0.3614
X0.0358Y5.7236
X0.0358Y5.5622
X0.0358Y4.8142
X0.0358Y4.4559
X0.0358Y0.0465
X0.0437Y1.887
X0.1539Y3.1213
X0.1563Y3.9303
X0.1579Y2.978
X0.1618Y2.3811
X0.1697Y6.1094
X0.1697Y5.9402
X0.1815Y5.7236
X0.2201Y4.1441
X0.2681Y1.5031
X0.2681Y1.1488
X0.2681Y0.6764
X0.2681Y0.4795
X0.2681Y0.0425
X0.2709Y1.8598
X0.2957Y4.8181
X0.3035Y3.4008
X0.304Y2.73
X0.3118Y2.7803
X0.3154Y3.6567
X0.3193Y6.5161
X0.3309Y3.8331
X0.3311Y5.6835
X0.3311Y5.5701
X0.3313Y6.037
X0.3459Y4.9541
X0.3523Y2.35
X0.4335Y1.1488
X0.465Y4.1843
X0.4736Y2.3067
X0.4736Y2.2799
X0.4965Y5.2433
X0.4984Y2.9201
X0.4992Y2.3807
X0.5031Y4.8185
X0.5031Y4.4531
X0.5043Y2.7236
X0.5067Y1.8591
X0.5083Y3.6843
X0.5083Y3.4008
X0.5083Y3.0976
X0.5083Y1.5031
X0.528Y0.6764
X0.5437Y1.2051
X0.5565Y0.9517
X0.5594Y0.5189
X0.5953Y5.439
X0.5988Y5.7197
X0.6299Y6.2016
X0.6394Y0.5137
X0.6854Y3.6803
X0.6933Y2.3969
X0.7209Y3.1016
X0.7366Y5.578
X0.739Y4.8177
X0.7406Y5.2433
X0.7406Y2.7236
X0.7433Y2.9146
X0.7435Y5.9213
X0.7504Y1.861
X0.7504Y1.5031
X0.7602Y1.1124
X0.7602Y0.6882
X0.7701Y5.7055
X0.7724Y4.6118
X0.7799Y6.1173
X0.8106Y2.2831
X0.8126Y2.2102
X0.8311Y2.322
X0.835Y6.5898
X0.8563Y6.2594
X0.9098Y3.1567
X0.9492Y5.9402
X0.961Y6.3933
X0.965Y4.1828
X0.9728Y0.6921
X0.9768Y5.2827
X0.9768Y0.0465
X0.9846Y3.6646
X0.9846Y3.4008
X0.9874Y5.0949
X0.9925Y2.3969
X1.0083Y4.4362
X1.0122Y1.8969
X1.0967Y2.6189
X1.1043Y6.5425
X1.1264Y2.1307
X1.1319Y1.9831
X1.135Y3.7961
X1.1363Y2.712
X1.1492Y6.2807
X1.1539Y5.948
X1.1661Y4.9728
X1.1673Y5.6665
X1.1673Y4.4673
X1.1894Y2.39
X1.1933Y1.6961
X1.1933Y1.3969
X1.1972Y3.9913
X1.1972Y1.0976
X1.1972Y0.7827
X1.1972Y0.4835
X1.1972Y0.1843
X1.2091Y5.7315
X1.2091Y5.5583
X1.2114Y4.1858
X1.213Y6.3535
X1.213Y0.6764
X1.2157Y4.4535
X1.2169Y0.0465
X1.2209Y5.2197
X1.2209Y4.763
X1.2252Y2.7287
X1.2287Y1.8969
X1.2327Y3.6843
X1.2366Y3.4008
X1.2366Y3.2354
X1.2406Y6.5898
X1.272Y1.7
X1.276Y1.3969
X1.276Y1.0976
X1.276Y0.7827
X1.276Y0.4874
X1.276Y0.1882
X1.2823Y2.0524
X1.3047Y3.8311
X1.3175Y2.7969
X1.329Y2.3286
X1.3744Y5.948
X1.4217Y3.1882
X1.4295Y5.7315
X1.4295Y4.1878
X1.4335Y3.9835
X1.4335Y3.6921
X1.4374Y4.452
X1.4406Y2.728
X1.4413Y5.2866
X1.4413Y3.4008
X1.4413Y2.9638
X1.4453Y6.3535
X1.4453Y2.39
X1.4492Y1.5031
X1.4492Y1.1488
X1.4492Y0.6764
X1.4492Y0.3614
X1.4492Y0.0465
X1.4528Y1.8614
X1.4697Y4.9807
X1.5004Y4.763
X1.5433Y6.0811
X1.5844Y6.0976
X1.6189Y5.9764
X1.6268Y6.5154
X1.6528Y2.3659
X1.6764Y2.7272
X1.6776Y3.4008
X1.6776Y3.1803
X1.6776Y2.9598
X1.6807Y4.187
X1.6815Y3.6882
X1.685Y4.4547
X1.6854Y5.7315
X1.6854Y5.5622
X1.6854Y3.985
X1.6854Y1.1488
X1.6854Y0.6764
X1.6854Y0.3614
X1.6854Y0.0465
X1.6963Y6.4226
X1.7012Y1.5031
X1.7248Y1.7394
X1.7445Y6.5858
X1.7512Y0.3169
X1.7528Y0.7122
X1.7535Y1.5264
X1.7561Y1.9266
X1.7565Y1.109
X1.765Y5.3268
X1.7689Y5.4583
X1.8425Y2.7228
X1.8469Y3.1803
X1.8508Y1.011
X1.8823Y5.2079
X1.9138Y1.4283
X1.9142Y2.3823
X1.9177Y5.5622
X1.9177Y0.5976
X1.9205Y4.8173
X1.9205Y4.452
X1.9205Y1.8189
X1.9217Y0.2039
X1.9217Y0.0465
X1.9256Y3.4008
X1.9295Y3.6646
X1.9492Y6.5858
X1.961Y5.7197
X1.9898Y2.3063
X2.1264Y4.1921
X2.1382Y6.5898
X2.1453Y2.7264
X2.1461Y5.2472
X2.15Y5.9992
X2.15Y5.7197
X2.15Y5.5622
X2.15Y2.3815
X2.1539Y4.8193
X2.1539Y4.4539
X2.1539Y3.6882
X2.1539Y3.4008
X2.1539Y3.1449
X2.1543Y3.9843
X2.1575Y1.8598
X2.1579Y1.5031
X2.1579Y1.1488
X2.1579Y0.6764
X2.1579Y0.3614
X2.1618Y2.9598
X2.1618Y0.0465
X2.2303Y6.2457
X2.3697Y5.7224
X2.3705Y5.5622
X2.3783Y6.5898
T4
X0.5606Y0.4114
X0.6394Y0.4114
X0.718Y0.4114
X0.7968Y0.4114
T5
X0.3638Y4.3331
X0.3638Y4.2331
X0.3638Y4.1331
X0.3638Y4.0331
X0.3638Y3.9331
X0.3638Y3.8331
X0.3638Y3.7331
X0.376Y3.2803
X0.376Y3.1803
X0.376Y3.0803
X0.376Y2.9803
X0.376Y2.8803
X0.376Y2.7803
X0.376Y2.6803
X0.9638Y4.3331
X0.9638Y4.2331
X0.9638Y4.1331
X0.9638Y4.0331
X0.9638Y3.9331
X0.9638Y3.8331
X0.9638Y3.7331
X0.976Y3.2803
X0.976Y3.1803
X0.976Y3.0803
X0.976Y2.9803
X0.976Y2.8803
X0.976Y2.7803
X0.976Y2.6803
X1.3376Y4.3311
X1.3376Y4.2311
X1.3376Y4.1311
X1.3376Y4.0311
X1.3376Y3.9311
X1.3376Y3.8311
X1.3376Y3.7311
X1.35Y3.2791
X1.35Y3.1791
X1.35Y3.0791
X1.35Y2.9791
X1.35Y2.8791
X1.35Y2.7791
X1.35Y2.6791
X1.9376Y4.3311
X1.9376Y4.2311
X1.9376Y4.1311
X1.9376Y4.0311
X1.9376Y3.9311
X1.9376Y3.8311
X1.9376Y3.7311
X1.95Y3.2791
X1.95Y3.1791
X1.95Y3.0791
X1.95Y2.9791
X1.95Y2.8791
X1.95Y2.7791
X1.95Y2.6791
T6
X1.0378Y1.7537
X1.0378Y1.4528
X1.0378Y1.1518
X1.0378Y0.8508
X1.0378Y0.5498
X1.0378Y0.2488
X1.1165Y1.7537
X1.1165Y1.4528
X1.1165Y1.1518
X1.1165Y0.8508
X1.1165Y0.5498
X1.1165Y0.2488
X1.1953Y1.7537
X1.1953Y1.4528
X1.1953Y1.1518
X1.1953Y0.8508
X1.1953Y0.5498
X1.1953Y0.2488
X1.274Y1.7537
X1.274Y1.4528
X1.274Y1.1518
X1.274Y0.8508
X1.274Y0.5498
X1.274Y0.2488
T7
X0.3303Y5.7736
X0.3317Y5.9547
X0.4303Y5.7736
X0.4317Y5.9547
X0.6673Y5.7992
X0.7673Y5.7992
X0.8673Y5.7992
X0.9673Y5.7992
X1.0673Y5.7992
X1.1673Y5.7992
X1.2673Y5.7992
X1.3673Y5.7992
X1.4673Y5.7992
X2.2689Y6.3008
X2.2689Y6.2008
X2.2689Y6.1008
X2.2689Y6.0008
X2.2689Y5.9008
X2.2689Y5.8008
X2.3689Y6.3008
X2.3689Y6.2008
X2.3689Y6.1008
X2.3689Y6.0008
X2.3689Y5.9008
X2.3689Y5.8008
T8
X0.5421Y1.3146
X0.5484Y0.8236
X0.5492Y1.0661
X0.6421Y1.3146
X0.6484Y0.8236
X0.6492Y1.0661
X1.898Y6.2878
X1.898Y6.1878
X2.0394Y6.2878
X2.0394Y6.1878
T9
X1.2457Y6.5004
X1.2457Y6.1004
X1.3791Y6.5012
X1.3791Y6.1012
M30
