M48
; DRILL file KiCad 10.0.3 date 2026-06-26T16:01:39
; FORMAT={-:-/ absolute / inch / decimal}
; #@! TF.CreationDate,2026-06-26T16:01:39+02:00
; #@! TF.GenerationSoftware,Kicad,Pcbnew,10.0.3
; #@! TF.FileFunction,Plated,1,3,Blind
FMAT,2
INCH
; #@! TA.AperFunction,Plated,Buried,ViaDrill
T1C0.0039
; #@! TA.AperFunction,Plated,Buried,ViaDrill
T2C0.0118
%
G90
G05
T1
X0.7957Y2.3614
T2
X0.2189Y2.1504
X0.6702Y4.7303
X0.8106Y2.2516
X0.8201Y5.3228
X0.8339Y2.0661
X1.0091Y2.1442
X1.0984Y4.239
X1.127Y3.175
X1.1343Y2.935
X1.1703Y2.131
X1.1951Y2.1547
X1.2261Y2.1803
X1.3247Y2.226
X1.3556Y2.2321
X1.3871Y2.2321
X1.4331Y2.2087
X1.5929Y2.1638
X1.8906Y0.8677
X1.9059Y1.2579
X1.9122Y1.6846
X1.924Y0.8677
X1.9508Y0.4268
X1.9531Y2.0307
X1.9876Y0.4287
X2.0343Y1.2732
X2.0949Y5.8398
X2.0953Y5.778
X2.0957Y5.9075
X2.1764Y6.4831
M30
