%TF.GenerationSoftware,KiCad,Pcbnew,10.0.3*%
%TF.CreationDate,2026-06-26T16:01:39+02:00*%
%TF.ProjectId,meshtonic_h4m_v2,6d657368-746f-46e6-9963-5f68346d5f76,rev?*%
%TF.SameCoordinates,Original*%
%TF.FileFunction,Soldermask,Bot*%
%TF.FilePolarity,Negative*%
%FSLAX46Y46*%
G04 Gerber Fmt 4.6, Leading zero omitted, Abs format (unit mm)*
G04 Created by KiCad (PCBNEW 10.0.3) date 2026-06-26 16:01:39*
%MOMM*%
%LPD*%
G01*
G04 APERTURE LIST*
G04 Aperture macros list*
%AMRoundRect*
0 Rectangle with rounded corners*
0 $1 Rounding radius*
0 $2 $3 $4 $5 $6 $7 $8 $9 X,Y pos of 4 corners*
0 Add a 4 corners polygon primitive as box body*
4,1,4,$2,$3,$4,$5,$6,$7,$8,$9,$2,$3,0*
0 Add four circle primitives for the rounded corners*
1,1,$1+$1,$2,$3*
1,1,$1+$1,$4,$5*
1,1,$1+$1,$6,$7*
1,1,$1+$1,$8,$9*
0 Add four rect primitives between the rounded corners*
20,1,$1+$1,$2,$3,$4,$5,0*
20,1,$1+$1,$4,$5,$6,$7,0*
20,1,$1+$1,$6,$7,$8,$9,0*
20,1,$1+$1,$8,$9,$2,$3,0*%
G04 Aperture macros list end*
%ADD10C,0.000000*%
%ADD11C,1.524000*%
%ADD12RoundRect,0.249999X-0.850001X0.850001X-0.850001X-0.850001X0.850001X-0.850001X0.850001X0.850001X0*%
%ADD13C,2.200000*%
%ADD14R,1.700000X1.700000*%
%ADD15C,1.700000*%
%ADD16RoundRect,0.101600X-0.750000X-0.750000X0.750000X-0.750000X0.750000X0.750000X-0.750000X0.750000X0*%
%ADD17C,1.703200*%
%ADD18C,1.879600*%
%ADD19C,0.508000*%
%ADD20C,4.400000*%
%ADD21C,1.000000*%
%ADD22R,1.270000X1.270000*%
%ADD23C,1.270000*%
G04 APERTURE END LIST*
D10*
%TO.C,G\u002A\u002A\u002A*%
G36*
X3850206Y31718402D02*
G01*
X3850206Y30736444D01*
X3621082Y30736444D01*
X3391959Y30736444D01*
X3391959Y31489279D01*
X3391959Y32242114D01*
X2180876Y32242114D01*
X969794Y32242114D01*
X969794Y32471238D01*
X969794Y32700361D01*
X2410000Y32700361D01*
X3850206Y32700361D01*
X3850206Y31718402D01*
G37*
G36*
X1362577Y52110413D02*
G01*
X1362577Y51684897D01*
X2606392Y51684897D01*
X3850206Y51684897D01*
X3850206Y51457218D01*
X3850206Y51229539D01*
X2622758Y51211728D01*
X1395309Y51193918D01*
X1375819Y50784768D01*
X1372090Y50708222D01*
X1357476Y50517423D01*
X1328232Y50418516D01*
X1268660Y50381312D01*
X1163062Y50375619D01*
X969794Y50375619D01*
X969794Y51455774D01*
X969794Y52535928D01*
X1166186Y52535928D01*
X1362577Y52535928D01*
X1362577Y52110413D01*
G37*
G36*
X3850206Y47167887D02*
G01*
X3850206Y46906031D01*
X3293763Y46906031D01*
X2737320Y46906031D01*
X2737320Y46382320D01*
X2737320Y45858609D01*
X2508196Y45858609D01*
X2279072Y45858609D01*
X2279072Y46382320D01*
X2279072Y46906031D01*
X1820825Y46906031D01*
X1362577Y46906031D01*
X1362577Y46185928D01*
X1362577Y45465825D01*
X1166186Y45465825D01*
X969794Y45465825D01*
X969794Y46447784D01*
X969794Y47429743D01*
X2410000Y47429743D01*
X3850206Y47429743D01*
X3850206Y47167887D01*
G37*
G36*
X3850206Y29296238D02*
G01*
X3850206Y28314279D01*
X3621082Y28314279D01*
X3391959Y28314279D01*
X3391959Y29034382D01*
X3391959Y29754485D01*
X2999175Y29754485D01*
X2606392Y29754485D01*
X2606392Y29230774D01*
X2606392Y28707062D01*
X2377268Y28707062D01*
X2148144Y28707062D01*
X2148144Y29230774D01*
X2148144Y29754485D01*
X1755361Y29754485D01*
X1362577Y29754485D01*
X1362577Y29034382D01*
X1362577Y28314279D01*
X1166186Y28314279D01*
X969794Y28314279D01*
X969794Y29296238D01*
X969794Y30278196D01*
X2410000Y30278196D01*
X3850206Y30278196D01*
X3850206Y29296238D01*
G37*
G36*
X3850206Y57085671D02*
G01*
X3850206Y56856547D01*
X2737320Y56856547D01*
X2445078Y56854683D01*
X2117928Y56847531D01*
X1857934Y56835962D01*
X1686351Y56820988D01*
X1624433Y56803619D01*
X1671168Y56774886D01*
X1825379Y56714965D01*
X2067865Y56632515D01*
X2378539Y56534329D01*
X2737317Y56427202D01*
X3850201Y56103712D01*
X3850203Y55760026D01*
X3850206Y55416341D01*
X2410000Y55416341D01*
X969794Y55416341D01*
X969794Y55643918D01*
X969794Y55871496D01*
X2099046Y55889408D01*
X3228299Y55907320D01*
X2639124Y56091409D01*
X2580788Y56109604D01*
X2221264Y56220780D01*
X1839832Y56337468D01*
X1509871Y56437199D01*
X969794Y56598900D01*
X969794Y56956847D01*
X969794Y57314794D01*
X2410000Y57314794D01*
X3850206Y57314794D01*
X3850206Y57085671D01*
G37*
G36*
X2005157Y42585413D02*
G01*
X2410000Y42585413D01*
X3850206Y42585413D01*
X3850206Y42358937D01*
X3850206Y42132460D01*
X3310129Y42113447D01*
X2770052Y42094433D01*
X2750380Y41825591D01*
X2730708Y41556749D01*
X3274091Y41323127D01*
X3817474Y41089504D01*
X3837320Y40792652D01*
X3857166Y40495799D01*
X3303963Y40755039D01*
X3039836Y40876305D01*
X2823790Y40966308D01*
X2691273Y41004988D01*
X2624677Y40997214D01*
X2606392Y40947853D01*
X2594770Y40906279D01*
X2491224Y40806415D01*
X2310662Y40714816D01*
X2090130Y40647814D01*
X1866672Y40621740D01*
X1586684Y40640970D01*
X1339385Y40719183D01*
X1163504Y40870248D01*
X1049582Y41107589D01*
X988165Y41444628D01*
X972874Y41819316D01*
X1362744Y41819316D01*
X1393816Y41557863D01*
X1433191Y41375128D01*
X1505666Y41258282D01*
X1639101Y41181070D01*
X1659213Y41172973D01*
X1904695Y41130569D01*
X2116401Y41191179D01*
X2261741Y41346162D01*
X2299282Y41443849D01*
X2336050Y41642870D01*
X2340737Y41848258D01*
X2313721Y42015486D01*
X2255376Y42100025D01*
X2182224Y42112534D01*
X2005157Y42119620D01*
X1781399Y42114336D01*
X1622880Y42102935D01*
X1458697Y42065177D01*
X1378178Y41979529D01*
X1362744Y41819316D01*
X972874Y41819316D01*
X969794Y41894791D01*
X969794Y42585413D01*
X2005157Y42585413D01*
G37*
G36*
X3815093Y35379974D02*
G01*
X3840124Y35295052D01*
X3850206Y35136104D01*
X3848219Y35036531D01*
X3821253Y34927214D01*
X3735107Y34864025D01*
X3555619Y34809035D01*
X3261031Y34730245D01*
X3261031Y34246786D01*
X3261031Y33763327D01*
X3555619Y33689149D01*
X3678664Y33656395D01*
X3796822Y33603241D01*
X3842574Y33516947D01*
X3850206Y33359102D01*
X3850206Y33103233D01*
X3375593Y33237425D01*
X3324276Y33251968D01*
X3057875Y33328018D01*
X2714481Y33426639D01*
X2332854Y33536684D01*
X1951753Y33647002D01*
X1002526Y33922386D01*
X983135Y34249167D01*
X982796Y34254883D01*
X1460773Y34254883D01*
X2017216Y34100546D01*
X2119155Y34072774D01*
X2373583Y34007875D01*
X2575472Y33962524D01*
X2688222Y33945192D01*
X2697778Y33945328D01*
X2763144Y33973806D01*
X2794631Y34072517D01*
X2802783Y34271495D01*
X2799171Y34389341D01*
X2779771Y34539920D01*
X2749201Y34598815D01*
X2709019Y34592685D01*
X2567373Y34558835D01*
X2372784Y34505263D01*
X2286912Y34480581D01*
X2008148Y34402238D01*
X1755361Y34333297D01*
X1460773Y34254883D01*
X982796Y34254883D01*
X963745Y34575949D01*
X2363759Y34980165D01*
X2557176Y35035890D01*
X2749201Y35090836D01*
X2947137Y35147474D01*
X3285674Y35243318D01*
X3554211Y35318219D01*
X3734174Y35366974D01*
X3806989Y35384382D01*
X3815093Y35379974D01*
G37*
G36*
X2471049Y54924975D02*
G01*
X2558424Y54924422D01*
X2940460Y54907260D01*
X3224095Y54862319D01*
X3433063Y54781546D01*
X3591097Y54656891D01*
X3721929Y54480302D01*
X3762256Y54404452D01*
X3829276Y54171947D01*
X3849961Y53853871D01*
X3849962Y53836236D01*
X3843734Y53608106D01*
X3813010Y53457788D01*
X3739254Y53335321D01*
X3603927Y53190741D01*
X3451002Y53055800D01*
X3242720Y52940414D01*
X2965988Y52863153D01*
X2723673Y52824576D01*
X2281425Y52811270D01*
X1865577Y52867392D01*
X1500419Y52986405D01*
X1210244Y53161773D01*
X1019345Y53386959D01*
X938370Y53630433D01*
X918753Y53939900D01*
X922520Y53963536D01*
X1359807Y53963536D01*
X1378202Y53759407D01*
X1518923Y53551982D01*
X1615931Y53472837D01*
X1851259Y53371492D01*
X2172579Y53327065D01*
X2597417Y53336048D01*
X2816844Y53358705D01*
X3090052Y53424049D01*
X3272456Y53533424D01*
X3387300Y53697465D01*
X3431052Y53801762D01*
X3447404Y53912099D01*
X3410980Y54041598D01*
X3331175Y54179917D01*
X3122896Y54345288D01*
X2829095Y54449313D01*
X2471049Y54485550D01*
X2070032Y54447557D01*
X1956407Y54422637D01*
X1657125Y54308503D01*
X1455520Y54151019D01*
X1359807Y53963536D01*
X922520Y53963536D01*
X967124Y54243384D01*
X1080444Y54486195D01*
X1115515Y54531848D01*
X1272678Y54696694D01*
X1454390Y54809776D01*
X1686969Y54879785D01*
X1996733Y54915416D01*
X2410000Y54925361D01*
X2471049Y54924975D01*
G37*
G36*
X2471049Y45105387D02*
G01*
X2558424Y45104834D01*
X2940460Y45087673D01*
X3224095Y45042731D01*
X3433063Y44961958D01*
X3591097Y44837303D01*
X3721929Y44660714D01*
X3762256Y44584864D01*
X3829276Y44352359D01*
X3849961Y44034283D01*
X3849962Y44016648D01*
X3843734Y43788518D01*
X3813010Y43638201D01*
X3739254Y43515733D01*
X3603927Y43371153D01*
X3451002Y43236212D01*
X3242720Y43120827D01*
X2965988Y43043566D01*
X2723673Y43004988D01*
X2281425Y42991682D01*
X1865577Y43047804D01*
X1500419Y43166817D01*
X1210244Y43342185D01*
X1019345Y43567372D01*
X938370Y43810846D01*
X918753Y44120312D01*
X922520Y44143948D01*
X1359807Y44143948D01*
X1378202Y43939819D01*
X1518923Y43732394D01*
X1615931Y43653250D01*
X1851259Y43551904D01*
X2172579Y43507477D01*
X2597417Y43516461D01*
X2816844Y43539117D01*
X3090052Y43604461D01*
X3272456Y43713836D01*
X3387300Y43877877D01*
X3431052Y43982175D01*
X3447404Y44092512D01*
X3410980Y44222011D01*
X3331175Y44360329D01*
X3122896Y44525701D01*
X2829095Y44629725D01*
X2471049Y44665962D01*
X2070032Y44627970D01*
X1956407Y44603049D01*
X1657125Y44488915D01*
X1455520Y44331431D01*
X1359807Y44143948D01*
X922520Y44143948D01*
X967124Y44423797D01*
X1080444Y44666607D01*
X1115515Y44712260D01*
X1272678Y44877106D01*
X1454390Y44990188D01*
X1686969Y45060198D01*
X1996733Y45095828D01*
X2410000Y45105774D01*
X2471049Y45105387D01*
G37*
G36*
X3673607Y37652039D02*
G01*
X3785763Y37528325D01*
X3798584Y37483339D01*
X3820835Y37307296D01*
X3833021Y37056664D01*
X3832752Y36770040D01*
X3831265Y36711413D01*
X3821665Y36443367D01*
X3803463Y36267764D01*
X3767302Y36151855D01*
X3703828Y36062886D01*
X3603684Y35968107D01*
X3517250Y35896884D01*
X3331358Y35802296D01*
X3097371Y35777165D01*
X2974728Y35785094D01*
X2761688Y35851681D01*
X2567252Y35998711D01*
X2373924Y36241525D01*
X2164209Y36595464D01*
X2119206Y36676280D01*
X1942161Y36935396D01*
X1778114Y37069932D01*
X1620300Y37083591D01*
X1461956Y36980079D01*
X1392381Y36842910D01*
X1379146Y36632851D01*
X1427664Y36410721D01*
X1533083Y36227848D01*
X1551583Y36207208D01*
X1608288Y36122943D01*
X1587340Y36047001D01*
X1479975Y35930270D01*
X1352757Y35827315D01*
X1244117Y35815657D01*
X1143149Y35913256D01*
X1029879Y36128927D01*
X933635Y36437798D01*
X913095Y36773694D01*
X971770Y37085551D01*
X1103641Y37342792D01*
X1302690Y37514843D01*
X1486914Y37588161D01*
X1788640Y37610311D01*
X2071005Y37507479D01*
X2326151Y37283289D01*
X2546218Y36941365D01*
X2599946Y36835554D01*
X2745960Y36573603D01*
X2867129Y36409630D01*
X2979595Y36324951D01*
X3099501Y36300877D01*
X3175180Y36309401D01*
X3327180Y36406039D01*
X3412660Y36598965D01*
X3427469Y36873982D01*
X3367452Y37216888D01*
X3366897Y37218980D01*
X3316500Y37453635D01*
X3326936Y37591628D01*
X3409152Y37657206D01*
X3574094Y37674617D01*
X3673607Y37652039D01*
G37*
%TD*%
D11*
%TO.C,J_WIO1*%
X24480000Y94820000D03*
X24480000Y97360000D03*
X24480000Y99900000D03*
X24480000Y102440000D03*
X24480000Y104980000D03*
X24480000Y107520000D03*
X24480000Y110060000D03*
X9240000Y110060000D03*
X9240000Y107520000D03*
X9240000Y104980000D03*
X9240000Y102440000D03*
X9240000Y99900000D03*
X9240000Y97360000D03*
X9240000Y94820000D03*
%TD*%
D12*
%TO.C,D3*%
X31640000Y165110000D03*
D13*
X31640000Y154950000D03*
%TD*%
D14*
%TO.C,J15*%
X57630000Y160040000D03*
D15*
X60170000Y160040000D03*
X57630000Y157500000D03*
X60170000Y157500000D03*
X57630000Y154960000D03*
X60170000Y154960000D03*
X57630000Y152420000D03*
X60170000Y152420000D03*
X57630000Y149880000D03*
X60170000Y149880000D03*
X57630000Y147340000D03*
X60170000Y147340000D03*
%TD*%
D16*
%TO.C,J1*%
X26360000Y44545000D03*
D17*
X28360000Y44545000D03*
X30360000Y44545000D03*
X32360000Y44545000D03*
%TD*%
D18*
%TO.C,J11*%
X16310000Y33390000D03*
X13770000Y33390000D03*
%TD*%
%TO.C,JP_VBAT_H4M1*%
X48210000Y159710000D03*
X48210000Y157170000D03*
%TD*%
D16*
%TO.C,J5*%
X26360000Y21610000D03*
D17*
X28360000Y21610000D03*
X30360000Y21610000D03*
X32360000Y21610000D03*
%TD*%
D19*
%TO.C,U1*%
X24760000Y159210000D03*
X24760000Y159997400D03*
X24760000Y160784800D03*
X23972600Y159210000D03*
X23972600Y159997400D03*
X23972600Y160784800D03*
%TD*%
D16*
%TO.C,J3*%
X26360000Y36900000D03*
D17*
X28360000Y36900000D03*
X30360000Y36900000D03*
X32360000Y36900000D03*
%TD*%
D11*
%TO.C,J_WIO2*%
X24790000Y68080000D03*
X24790000Y70620000D03*
X24790000Y73160000D03*
X24790000Y75700000D03*
X24790000Y78240000D03*
X24790000Y80780000D03*
X24790000Y83320000D03*
X9550000Y83320000D03*
X9550000Y80780000D03*
X9550000Y78240000D03*
X9550000Y75700000D03*
X9550000Y73160000D03*
X9550000Y70620000D03*
X9550000Y68080000D03*
%TD*%
D16*
%TO.C,J4*%
X26360000Y29255000D03*
D17*
X28360000Y29255000D03*
X30360000Y29255000D03*
X32360000Y29255000D03*
%TD*%
D20*
%TO.C,ST2*%
X200000Y161960000D03*
%TD*%
D21*
%TO.C,J14*%
X51150000Y124820000D03*
X43170000Y124820000D03*
%TD*%
D18*
%TO.C,JP_H4M_3V1*%
X51800000Y159710000D03*
X51800000Y157170000D03*
%TD*%
D22*
%TO.C,J2*%
X20239740Y10450120D03*
D23*
X18238220Y10450000D03*
X16241780Y10450000D03*
X14240260Y10450000D03*
%TD*%
D14*
%TO.C,J13*%
X10965000Y151250000D03*
D15*
X8425000Y151250000D03*
%TD*%
D16*
%TO.C,J7*%
X26360000Y6320000D03*
D17*
X28360000Y6320000D03*
X30360000Y6320000D03*
X32360000Y6320000D03*
%TD*%
D16*
%TO.C,J6*%
X26360000Y13965000D03*
D17*
X28360000Y13965000D03*
X30360000Y13965000D03*
X32360000Y13965000D03*
%TD*%
D18*
%TO.C,J9*%
X16470000Y20920000D03*
X13930000Y20920000D03*
%TD*%
D12*
%TO.C,D2*%
X35030000Y165130000D03*
D13*
X35030000Y154970000D03*
%TD*%
D14*
%TO.C,J_DISP1*%
X16950000Y147300000D03*
D15*
X19490000Y147300000D03*
X22030000Y147300000D03*
X24570000Y147300000D03*
X27110000Y147300000D03*
X29650000Y147300000D03*
X32190000Y147300000D03*
X34730000Y147300000D03*
X37270000Y147300000D03*
%TD*%
D18*
%TO.C,J10*%
X16490000Y27080000D03*
X13950000Y27080000D03*
%TD*%
D14*
%TO.C,SC1*%
X10930000Y146650000D03*
D15*
X8390000Y146650000D03*
%TD*%
D11*
%TO.C,J_WIO4*%
X49530000Y68050000D03*
X49530000Y70590000D03*
X49530000Y73130000D03*
X49530000Y75670000D03*
X49530000Y78210000D03*
X49530000Y80750000D03*
X49530000Y83290000D03*
X34290000Y83290000D03*
X34290000Y80750000D03*
X34290000Y78210000D03*
X34290000Y75670000D03*
X34290000Y73130000D03*
X34290000Y70590000D03*
X34290000Y68050000D03*
%TD*%
%TO.C,J_WIO3*%
X49215000Y94770000D03*
X49215000Y97310000D03*
X49215000Y99850000D03*
X49215000Y102390000D03*
X49215000Y104930000D03*
X49215000Y107470000D03*
X49215000Y110010000D03*
X33975000Y110010000D03*
X33975000Y107470000D03*
X33975000Y104930000D03*
X33975000Y102390000D03*
X33975000Y99850000D03*
X33975000Y97310000D03*
X33975000Y94770000D03*
%TD*%
D20*
%TO.C,ST3*%
X46370000Y148950000D03*
%TD*%
%TO.C,ST1*%
X5760000Y6480000D03*
%TD*%
M02*
