M48
; DRILL file KiCad 10.0.3 date 2026-06-26T19:46:39
; FORMAT={-:-/ absolute / inch / decimal}
; #@! TF.CreationDate,2026-06-26T19:46:39+02:00
; #@! TF.GenerationSoftware,Kicad,Pcbnew,10.0.3
; #@! TF.FileFunction,Plated,1,5,Blind
FMAT,2
INCH
; #@! TA.AperFunction,Plated,Buried,ViaDrill
T1C0.0118
; #@! TA.AperFunction,Plated,Buried,ViaDrill
T2C0.0157
%
G90
G05
T1
X0.1911Y3.996
X0.2018Y2.9319
X0.2504Y6.5126
X0.3113Y2.176
X0.5299Y5.1102
X0.5528Y6.4657
X0.6756Y5.5764
X0.6957Y6.3913
X0.7421Y4.5001
X0.813Y2.1787
X0.9189Y4.5004
X0.9217Y6.4764
X1.0512Y1.9185
X1.074Y6.3783
X1.0752Y6.3472
X1.0929Y5.5591
X1.1059Y6.3795
X1.1059Y6.3465
X1.1319Y4.1894
X1.1319Y3.9781
X1.1929Y2.7206
X1.2016Y2.8839
X1.2138Y3.7949
X1.235Y3.0831
X1.2362Y3.1795
X1.2965Y1.9988
X1.3689Y5.5642
X1.6311Y5.4535
X1.7555Y0.4307
X1.7654Y0.8228
X1.7866Y1.6374
X1.7913Y1.2224
X1.8134Y2.0166
X1.8331Y5.4591
X1.8354Y1.9264
X1.9114Y2.2992
X1.9547Y5.5177
X2.0398Y6.1157
X2.0953Y0.4283
X2.1063Y0.824
X2.1118Y1.226
X2.1122Y1.6386
X2.1138Y2.0343
X2.1965Y4.0945
X2.215Y3.0535
T2
X0.6825Y5.9213
M30
