M48
; DRILL file KiCad 10.0.3 date 2026-06-26T16:01:39
; FORMAT={-:-/ absolute / inch / decimal}
; #@! TF.CreationDate,2026-06-26T16:01:39+02:00
; #@! TF.GenerationSoftware,Kicad,Pcbnew,10.0.3
; #@! TF.FileFunction,Plated,1,4,Blind
FMAT,2
INCH
; #@! TA.AperFunction,Plated,Buried,ViaDrill
T1C0.0118
%
G90
G05
T1
X0.1772Y5.4701
X0.3587Y6.4496
X0.4047Y1.0122
X0.4693Y4.6429
X0.4736Y1.972
X0.5421Y2.0047
X0.5589Y2.0323
X0.5701Y4.6445
X0.5716Y2.1312
X0.5756Y2.0965
X0.6037Y6.3945
X0.6087Y1.5454
X0.6202Y4.7145
X0.6283Y1.5933
X0.6776Y1.4626
X0.6819Y3.828
X0.6894Y0.7039
X0.7173Y3.1783
X0.7406Y4.5861
X0.776Y3.0854
X0.7878Y0.6606
X0.7953Y6.4193
X0.7962Y4.644
X0.8691Y5.3195
X0.8778Y1.3465
X0.8852Y2.1792
X0.8925Y4.6447
X0.9094Y5.3319
X0.9565Y5.3512
X0.9606Y2.5307
X0.9685Y4.6051
X0.9991Y2.0907
X1.0702Y4.7303
X1.1063Y5.322
X1.1673Y4.0839
X1.1673Y3.3232
X1.2093Y2.9985
X1.2673Y5.211
X1.2886Y4.9248
X1.4037Y2.055
X1.4697Y3.0248
X1.5575Y2.4047
X1.573Y5.8015
X1.6917Y5.4858
X1.7201Y4.8638
X1.7553Y2.3024
X2.0445Y5.7189
X2.0929Y2.9449
X2.1516Y2.1681
X2.176Y6.4012
M30
